<svg version="1.1" id="Layer_1" xmlns="http://www.w3.org/2000/svg" xmlns:xlink="http://www.w3.org/1999/xlink" x="0px" y="0px"
	 width="100%" viewBox="0 0 1774 887" enable-background="new 0 0 1774 887" xml:space="preserve">
<path fill="#F5F5F5" opacity="1.000000" stroke="none" 
	d="
M1083.000000,888.000000 
	C722.000000,888.000000 361.500000,888.000000 1.000000,888.000000 
	C1.000000,592.333313 1.000000,296.666656 1.000000,1.000000 
	C592.333313,1.000000 1183.666626,1.000000 1775.000000,1.000000 
	C1775.000000,296.666656 1775.000000,592.333313 1775.000000,888.000000 
	C1544.500000,888.000000 1314.000000,888.000000 1083.000000,888.000000 
M1068.295166,551.088928 
	C1067.900757,550.621399 1067.506470,550.153809 1067.007690,549.014404 
	C1051.992920,525.217346 1036.881470,501.480682 1021.980896,477.612335 
	C965.377502,386.942749 908.842468,296.230469 852.279602,205.535599 
	C851.117859,203.672745 849.928406,201.827209 848.464478,199.520844 
	C838.981689,214.445786 830.008423,228.670181 820.935974,242.831055 
	C773.146484,317.424133 725.280762,391.968506 677.565918,466.609314 
	C667.048584,483.061707 655.875916,498.904327 642.252380,513.017395 
	C613.516785,542.785522 579.446045,562.211914 537.990112,567.192932 
	C496.455811,572.183411 458.373871,561.521851 422.843170,540.420654 
	C365.884094,506.593475 334.570862,443.956757 343.991547,379.714935 
	C356.620789,293.593781 432.258667,240.176819 511.521637,243.645432 
	C548.236633,245.252106 580.257019,259.399933 608.565369,282.438782 
	C611.100098,284.501678 613.631226,286.568909 615.269287,287.904602 
	C630.274048,273.224060 644.765137,259.046112 659.389648,244.737595 
	C658.981934,244.276855 658.611206,243.735703 658.127014,243.330139 
	C654.169434,240.015198 650.284851,236.603912 646.204407,233.446304 
	C581.340637,183.251587 509.568573,168.690903 431.568604,195.171005 
	C358.909271,219.837997 309.328339,269.644897 287.982635,343.441040 
	C266.381653,418.119904 284.414429,485.893738 334.072357,545.091003 
	C394.964813,617.681030 502.673676,645.979736 593.458801,614.881287 
	C641.130432,598.551331 680.018555,570.149658 708.178406,528.217590 
	C729.985840,495.744659 750.627991,462.488190 771.728271,429.541687 
	C795.888855,391.816681 819.980896,354.047791 844.115601,316.306152 
	C845.026917,314.881073 846.072998,313.542175 847.273193,311.858887 
	C852.395996,319.994171 857.095215,327.462219 861.799683,334.926941 
	C919.757019,426.890106 977.726807,518.845459 1035.613037,610.853394 
	C1037.231934,613.426392 1038.914795,614.368469 1041.950439,614.365906 
	C1153.443115,614.271973 1264.935669,614.257080 1376.428345,614.328552 
	C1379.633545,614.330566 1381.502808,613.399536 1383.282104,610.685425 
	C1394.144775,594.115662 1405.231567,577.693115 1416.203613,561.194885 
	C1418.074829,558.381042 1419.752930,555.438660 1421.987549,551.793091 
	C1417.870117,551.793091 1414.894653,551.792786 1411.919189,551.793091 
	C1342.590454,551.801208 1273.261719,551.810913 1203.932983,551.815857 
	C1193.738037,551.816528 1190.203979,549.366394 1186.860962,539.042419 
	C1186.828369,537.211487 1186.767212,535.380615 1186.767334,533.549683 
	C1186.776367,427.641846 1186.798340,321.733978 1186.734253,215.826187 
	C1186.733154,214.077820 1185.689697,212.330063 1184.810425,210.018738 
	C1181.619263,207.623077 1178.418335,205.240311 1175.238525,202.829544 
	C1159.084717,190.582413 1142.936523,178.328033 1126.512207,165.564514 
	C1125.824585,165.877640 1124.568237,166.147766 1124.540771,166.510834 
	C1124.353027,168.994827 1124.410767,171.498337 1124.411743,173.995544 
	C1124.456299,299.023926 1124.507446,424.052307 1124.514038,549.080688 
	C1124.514160,551.351013 1123.981079,553.621338 1123.037842,555.684814 
	C1122.363647,555.771545 1121.689331,555.858276 1120.286255,555.690369 
	C1117.178589,555.759399 1114.070923,555.828430 1110.066650,555.626343 
	C1104.726807,555.705139 1099.386841,555.783997 1093.412109,555.596375 
	C1091.594238,555.683044 1089.776245,555.769714 1087.071533,555.584961 
	C1083.056763,555.694458 1079.041992,555.803955 1074.355835,555.657654 
	C1072.365845,554.310608 1070.375854,552.963562 1068.325073,551.744019 
	C1068.325073,551.744019 1068.458008,551.696228 1068.295166,551.088928 
M774.743530,551.932495 
	C770.958435,551.431458 768.455994,552.671387 766.163208,556.108154 
	C756.275024,570.929565 745.978638,585.478271 735.866028,600.150513 
	C732.894348,604.462158 730.038391,608.853577 727.020935,613.370728 
	C806.939697,613.370728 886.232971,613.370728 966.076965,613.370728 
	C964.573181,610.943115 963.470642,609.088440 962.296875,607.279907 
	C951.232727,590.233093 940.053650,573.259216 929.178894,556.092529 
	C927.229492,553.015198 925.257263,551.889160 921.674683,551.896362 
	C873.011536,551.994446 824.348206,551.945129 774.743530,551.932495 
M1437.500000,614.279053 
	C1482.471069,614.279053 1527.442261,614.279053 1573.479126,614.279053 
	C1558.940552,593.264038 1545.259766,573.402771 1531.394897,553.670776 
	C1530.598145,552.536804 1528.303223,551.964966 1526.702759,551.959473 
	C1499.892578,551.867493 1473.081421,551.977234 1446.271729,551.831909 
	C1442.841919,551.813293 1440.837280,552.940247 1438.976196,555.698914 
	C1429.481445,569.772705 1419.789551,583.713379 1410.223389,597.739319 
	C1406.699463,602.905823 1403.331055,608.178284 1399.317871,614.274048 
	C1412.361694,614.274048 1424.430908,614.274048 1437.500000,614.279053 
M1567.388062,717.991089 
	C1576.514893,710.673645 1575.826904,700.198242 1565.538086,693.235535 
	C1570.829102,689.183167 1571.484497,683.793823 1569.386597,678.036804 
	C1567.164795,671.939026 1561.978149,669.650269 1555.985718,669.426758 
	C1548.406128,669.144043 1540.807983,669.358521 1533.022217,669.358521 
	C1533.022217,686.764343 1533.022217,703.642944 1533.022217,720.916565 
	C1540.458618,720.916565 1547.613159,721.205322 1554.728882,720.804443 
	C1558.768799,720.576843 1562.745117,719.219910 1567.388062,717.991089 
M455.110168,673.581116 
	C445.029633,681.525330 441.381836,692.978882 445.395386,704.083862 
	C449.409882,715.191467 460.396759,722.240417 472.811981,721.673767 
	C485.926849,721.075134 496.803497,711.837463 498.788483,699.611572 
	C500.824310,687.072876 494.101807,675.166321 481.969421,670.539185 
	C472.888123,667.075745 464.030304,668.001343 455.110168,673.581116 
M841.795227,669.514404 
	C833.215576,669.514404 824.635925,669.514404 815.999023,669.514404 
	C815.999023,686.809082 815.999023,703.692200 815.999023,720.496094 
	C819.612488,720.496094 822.842224,720.496094 826.522339,720.496094 
	C826.522339,714.721802 826.522339,709.281982 826.522339,703.949646 
	C835.176453,702.330933 835.195312,702.321716 839.517395,708.802368 
	C841.640198,711.985291 843.592285,715.287659 845.832336,718.383545 
	C846.597656,719.441345 847.947205,720.608582 849.131104,720.728882 
	C852.318848,721.052979 855.561096,720.839661 859.548584,720.839661 
	C855.073120,713.909119 851.136353,707.812683 847.047119,701.480225 
	C855.592590,697.696228 858.164062,690.873352 856.734314,682.532349 
	C855.420105,674.865051 850.056458,670.991394 841.795227,669.514404 
M613.071594,703.498230 
	C613.071594,709.101990 613.071594,714.705688 613.071594,720.742676 
	C621.392639,720.742676 629.206787,721.256287 636.926575,720.621704 
	C648.366150,719.681335 657.895386,710.245300 659.124023,699.642334 
	C660.746887,685.637329 654.819885,674.112183 642.321350,671.095215 
	C633.043091,668.855591 623.092957,669.399780 613.075134,668.677490 
	C613.075134,680.899902 613.075134,691.699463 613.071594,703.498230 
M997.441772,699.715271 
	C997.756042,706.607971 998.070312,713.500610 998.387634,720.460938 
	C1001.969421,720.460938 1005.341309,720.460938 1008.703796,720.460938 
	C1008.703796,703.300415 1008.703796,686.528870 1008.703796,669.582397 
	C1005.062927,669.582397 1001.679871,669.582397 997.756348,669.582397 
	C997.756348,676.464172 997.756348,683.013550 997.756348,689.669983 
	C990.238586,689.669983 983.265137,689.669983 975.719238,689.669983 
	C975.719238,682.960693 975.719238,676.371521 975.719238,669.653137 
	C971.776855,669.653137 968.412903,669.653137 965.080017,669.653137 
	C965.080017,686.881897 965.080017,703.766479 965.080017,720.571228 
	C968.730408,720.571228 971.997009,720.571228 975.873169,720.571228 
	C975.873169,713.410645 975.873169,706.509399 975.873169,699.476257 
	C983.152954,699.476257 989.811768,699.476257 997.441772,699.715271 
M544.727722,677.591064 
	C544.727722,674.971680 544.727722,672.352295 544.727722,669.552856 
	C540.829407,669.552856 537.463501,669.552856 533.946594,669.552856 
	C533.946594,681.339783 533.372314,692.834778 534.111877,704.244629 
	C534.817810,715.136047 543.388123,721.576355 555.351868,721.660034 
	C567.405457,721.744324 576.279968,715.071594 577.169556,704.176636 
	C577.926025,694.912048 577.505249,685.550903 577.595032,676.232361 
	C577.616821,673.973694 577.598267,671.714600 577.598267,669.467224 
	C573.514587,669.467224 570.235474,669.467224 566.598938,669.467224 
	C566.500916,671.288696 566.344177,672.910095 566.337952,674.531982 
	C566.305969,682.856201 566.364563,691.180969 566.291199,699.504761 
	C566.221313,707.425049 562.333557,711.788757 555.598328,711.695129 
	C548.648621,711.598450 545.017273,707.585571 544.854980,699.546082 
	C544.713806,692.555786 544.765015,685.561584 544.727722,677.591064 
M1180.355103,695.314514 
	C1180.355103,693.668701 1180.355103,692.022949 1180.355103,689.844238 
	C1173.954224,689.844238 1167.877563,689.844238 1161.543701,689.844238 
	C1161.543701,686.063782 1161.543701,682.811584 1161.543701,678.903564 
	C1169.216309,678.903564 1176.779785,678.903564 1184.406250,678.903564 
	C1184.406250,675.354736 1184.406250,672.467346 1184.406250,669.528687 
	C1172.997314,669.528687 1161.933838,669.528687 1150.676636,669.528687 
	C1150.676636,686.714417 1150.676636,703.599182 1150.676636,720.632324 
	C1162.282715,720.632324 1173.515991,720.632324 1184.871216,720.632324 
	C1184.871216,717.433167 1184.871216,714.524353 1184.871216,711.067444 
	C1176.861328,711.067444 1169.141968,711.067444 1161.669189,711.067444 
	C1161.669189,706.940063 1161.669189,703.370239 1161.669189,699.365845 
	C1167.022827,699.365845 1171.992920,699.258545 1176.955200,699.411194 
	C1179.428711,699.487305 1180.847534,698.939270 1180.355103,695.314514 
M1502.026001,710.328125 
	C1497.175049,697.958679 1492.267212,685.610901 1487.519653,673.201904 
	C1486.532837,670.622681 1485.567871,668.654114 1482.296875,669.269531 
	C1479.081177,669.874512 1475.325073,667.652161 1473.347656,672.903381 
	C1467.838013,687.534973 1461.676514,701.920776 1455.793701,716.412292 
	C1455.261841,717.722351 1454.885132,719.095337 1454.289185,720.880005 
	C1457.503662,720.880005 1460.198730,721.184021 1462.774414,720.761047 
	C1464.223633,720.523071 1466.437988,719.275391 1466.658936,718.156738 
	C1467.996948,711.386108 1472.026123,709.508301 1478.382935,710.502625 
	C1480.978760,710.908691 1483.720581,710.736694 1486.355469,710.451721 
	C1489.975830,710.060181 1492.140991,711.422791 1492.685181,715.000610 
	C1493.419556,719.827515 1496.061157,721.728821 1500.877563,720.914551 
	C1502.420044,720.653809 1504.043945,720.873718 1506.224243,720.873718 
	C1504.750244,717.151001 1503.539551,714.093506 1502.026001,710.328125 
M779.747314,720.868835 
	C782.043335,720.868835 784.339355,720.868835 787.032776,720.868835 
	C786.544434,719.358765 786.255371,718.266907 785.844238,717.223267 
	C780.669617,704.089783 775.479553,690.962402 770.288757,677.835327 
	C766.638489,668.604004 766.635315,668.605225 756.165771,669.580750 
	C749.364136,686.421509 742.509705,703.393127 735.466980,720.830872 
	C738.978210,720.830872 741.659607,721.044434 744.279297,720.735229 
	C745.479309,720.593628 747.454285,719.531982 747.554016,718.704102 
	C748.623535,709.823242 754.817444,709.960693 761.366943,710.472900 
	C763.020813,710.602295 764.730774,710.706604 766.351196,710.437988 
	C770.824219,709.696533 773.025818,711.661377 774.074280,715.900208 
	C774.657898,718.259888 774.910095,721.540100 779.747314,720.868835 
M1228.907837,682.296753 
	C1237.167358,676.713745 1242.493652,677.144897 1251.981934,683.871155 
	C1254.293091,681.482300 1256.533936,679.166138 1258.762695,676.862488 
	C1248.040161,665.880920 1229.182617,665.921509 1218.913452,677.200439 
	C1208.712280,688.404602 1210.066650,706.732483 1221.776855,715.951355 
	C1233.101440,724.866638 1252.109131,723.145691 1259.500244,712.365845 
	C1257.326660,710.171265 1255.125122,707.948364 1253.007324,705.809998 
	C1252.409790,706.048889 1252.066284,706.097778 1251.843628,706.287964 
	C1243.761353,713.186951 1234.479370,713.555969 1228.114624,707.216736 
	C1221.798462,700.925903 1221.894043,690.387451 1228.907837,682.296753 
M334.137115,669.261169 
	C330.159241,669.202087 326.102417,668.608948 322.218262,669.183350 
	C310.343719,670.939575 301.963287,680.055725 300.580719,692.083374 
	C299.205841,704.044006 305.437714,714.848877 316.374207,719.466003 
	C327.284393,724.072021 340.404968,721.224915 347.131531,712.906555 
	C344.964996,710.503052 342.814758,708.117615 340.700378,705.771973 
	C331.980530,713.142395 323.199524,713.601685 316.496979,707.373962 
	C310.351196,701.663757 309.585510,691.303223 314.811981,684.575562 
	C320.736084,676.949951 329.001801,676.782959 340.628082,683.928467 
	C342.925598,681.756592 345.181885,679.623718 348.361237,676.618286 
	C343.542816,674.061096 339.228577,671.771423 334.137115,669.261169 
M888.875366,706.435547 
	C898.272949,723.794434 921.722351,727.075500 932.790649,713.486145 
	C930.706543,710.825867 928.695251,708.258362 926.710022,705.724304 
	C918.213623,712.983154 909.411438,713.588806 903.083435,707.613831 
	C896.713257,701.599182 895.681396,691.046753 901.525513,684.622803 
	C903.921631,681.988892 907.594971,679.961182 911.061584,678.979309 
	C917.147583,677.255432 922.269836,680.288574 926.343994,684.200378 
	C928.829346,681.545715 931.023010,679.202637 933.211670,676.864929 
	C924.741516,668.062683 910.335632,665.985596 899.612305,672.253052 
	C888.207581,678.919006 884.069092,691.470825 888.875366,706.435547 
M1083.057129,670.871521 
	C1083.057129,673.473145 1083.057129,676.074768 1083.057129,679.167847 
	C1087.979126,679.167847 1092.382080,679.167847 1097.200439,679.167847 
	C1097.200439,693.227417 1097.200439,706.780457 1097.200439,720.582214 
	C1100.864624,720.582214 1104.093384,720.582214 1107.898926,720.582214 
	C1107.898926,706.667419 1107.898926,692.975708 1107.898926,678.805603 
	C1112.868042,678.805603 1117.272217,678.805603 1121.729126,678.805603 
	C1121.729126,675.408142 1121.729126,672.510986 1121.729126,669.251526 
	C1112.641357,669.251526 1103.857666,669.177429 1095.076050,669.285217 
	C1091.157104,669.333374 1087.242798,669.747009 1083.057129,670.871521 
M1308.760132,682.643433 
	C1308.318726,679.826172 1309.474243,678.774414 1312.338867,678.948792 
	C1315.740601,679.155884 1319.164429,678.997498 1322.498047,678.997498 
	C1322.498047,675.259705 1322.498047,672.380188 1322.498047,669.547791 
	C1309.519409,669.547791 1296.951660,669.547791 1284.291260,669.547791 
	C1284.291260,672.788208 1284.291260,675.696045 1284.291260,679.097046 
	C1288.950317,679.097046 1293.347778,679.097046 1298.244385,679.097046 
	C1298.244385,693.285645 1298.244385,706.981995 1298.244385,720.634033 
	C1301.870728,720.634033 1304.972778,720.634033 1308.753906,720.634033 
	C1308.753906,708.136597 1308.753906,695.875671 1308.760132,682.643433 
M390.904297,669.277649 
	C387.826233,669.277649 384.748138,669.277649 381.630707,669.277649 
	C381.630707,686.836609 381.630707,703.585999 381.630707,720.583862 
	C392.485657,720.583862 403.038147,720.583862 413.729004,720.583862 
	C413.729004,717.415649 413.729004,714.528076 413.729004,711.192322 
	C406.507080,711.192322 399.574554,711.192322 392.234680,711.192322 
	C392.234680,708.787964 392.256744,706.833557 392.231049,704.879822 
	C392.076050,693.093628 391.910156,681.307617 390.904297,669.277649 
M1408.681885,711.285522 
	C1408.139648,709.939026 1407.153442,708.600769 1407.128296,707.244690 
	C1406.980225,699.268250 1407.056274,691.287659 1407.056641,683.308472 
	C1407.056763,678.736694 1407.056641,674.164856 1407.056641,669.691284 
	C1403.060425,669.691284 1399.831299,669.691284 1396.579346,669.691284 
	C1396.579346,686.898071 1396.579346,703.751221 1396.579346,720.608643 
	C1407.547607,720.608643 1418.123047,720.608643 1428.816406,720.608643 
	C1428.816406,717.451477 1428.816406,714.568787 1428.816406,711.321655 
	C1422.225342,711.321655 1415.938721,711.321655 1408.681885,711.285522 
M1053.581299,683.509521 
	C1053.581299,678.887878 1053.581299,674.266235 1053.581299,669.598633 
	C1049.741699,669.598633 1046.508301,669.598633 1043.331299,669.598633 
	C1043.331299,686.819336 1043.331299,703.706360 1043.331299,720.628906 
	C1046.846924,720.628906 1049.948120,720.628906 1053.584595,720.628906 
	C1053.584595,708.433899 1053.584595,696.470337 1053.581299,683.509521 
z"/>
<path fill="#05122C" opacity="1.000000" stroke="none" 
	d="
M1126.786133,166.076202 
	C1142.936523,178.328033 1159.084717,190.582413 1175.238525,202.829544 
	C1178.418335,205.240311 1181.619263,207.623077 1184.936890,210.795013 
	C1185.043945,247.550186 1185.010986,283.529083 1185.007690,319.507996 
	C1185.001343,391.133209 1184.998047,462.758484 1185.088013,534.383545 
	C1185.090454,536.246887 1186.186401,538.108765 1186.772339,539.971313 
	C1190.203979,549.366394 1193.738037,551.816528 1203.932983,551.815857 
	C1273.261719,551.810913 1342.590454,551.801208 1411.919189,551.793091 
	C1414.894653,551.792786 1417.870117,551.793091 1421.987549,551.793091 
	C1419.752930,555.438660 1418.074829,558.381042 1416.203613,561.194885 
	C1405.231567,577.693115 1394.144775,594.115662 1383.282104,610.685425 
	C1381.502808,613.399536 1379.633545,614.330566 1376.428345,614.328552 
	C1264.935669,614.257080 1153.443115,614.271973 1041.950439,614.365906 
	C1038.914795,614.368469 1037.231934,613.426392 1035.613037,610.853394 
	C977.726807,518.845459 919.757019,426.890106 861.799683,334.926941 
	C857.095215,327.462219 852.395996,319.994171 847.273193,311.858887 
	C846.072998,313.542175 845.026917,314.881073 844.115601,316.306152 
	C819.980896,354.047791 795.888855,391.816681 771.728271,429.541687 
	C750.627991,462.488190 729.985840,495.744659 708.178406,528.217590 
	C680.018555,570.149658 641.130432,598.551331 593.458801,614.881287 
	C502.673676,645.979736 394.964813,617.681030 334.072357,545.091003 
	C284.414429,485.893738 266.381653,418.119904 287.982635,343.441040 
	C309.328339,269.644897 358.909271,219.837997 431.568604,195.171005 
	C509.568573,168.690903 581.340637,183.251587 646.204407,233.446304 
	C650.284851,236.603912 654.169434,240.015198 658.127014,243.330139 
	C658.611206,243.735703 658.981934,244.276855 659.389648,244.737595 
	C644.765137,259.046112 630.274048,273.224060 615.269287,287.904602 
	C613.631226,286.568909 611.100098,284.501678 608.565369,282.438782 
	C580.257019,259.399933 548.236633,245.252106 511.521637,243.645432 
	C432.258667,240.176819 356.620789,293.593781 343.991547,379.714935 
	C334.570862,443.956757 365.884094,506.593475 422.843170,540.420654 
	C458.373871,561.521851 496.455811,572.183411 537.990112,567.192932 
	C579.446045,562.211914 613.516785,542.785522 642.252380,513.017395 
	C655.875916,498.904327 667.048584,483.061707 677.565918,466.609314 
	C725.280762,391.968506 773.146484,317.424133 820.935974,242.831055 
	C830.008423,228.670181 838.981689,214.445786 848.464478,199.520844 
	C849.928406,201.827209 851.117859,203.672745 852.279602,205.535599 
	C908.842468,296.230469 965.377502,386.942749 1021.980896,477.612335 
	C1036.881470,501.480682 1051.992920,525.217346 1067.069580,549.698425 
	C1067.573730,550.820374 1068.015869,551.258301 1068.458008,551.696228 
	C1068.458008,551.696228 1068.325073,551.744019 1068.274902,552.055847 
	C1070.187866,558.259644 1071.527710,558.958008 1075.027222,555.913452 
	C1079.041992,555.803955 1083.056763,555.694458 1087.586914,556.086548 
	C1090.406982,558.994446 1092.356934,558.493042 1094.046997,555.862793 
	C1099.386841,555.783997 1104.726807,555.705139 1110.700073,556.104309 
	C1114.708008,558.608398 1117.997070,559.334106 1121.015137,555.945068 
	C1121.689331,555.858276 1122.363647,555.771545 1123.782471,555.736206 
	C1125.018433,553.685486 1125.938599,551.583618 1125.939819,549.481140 
	C1126.009521,423.776794 1125.999878,298.072357 1126.037231,172.367950 
	C1126.037842,170.270630 1126.525757,168.173447 1126.786133,166.076202 
z"/>
<path fill="#06132D" opacity="1.000000" stroke="none" 
	d="
M775.214233,551.932373 
	C824.348206,551.945129 873.011536,551.994446 921.674683,551.896362 
	C925.257263,551.889160 927.229492,553.015198 929.178894,556.092529 
	C940.053650,573.259216 951.232727,590.233093 962.296875,607.279907 
	C963.470642,609.088440 964.573181,610.943115 966.076965,613.370728 
	C886.232971,613.370728 806.939697,613.370728 727.020935,613.370728 
	C730.038391,608.853577 732.894348,604.462158 735.866028,600.150513 
	C745.978638,585.478271 756.275024,570.929565 766.163208,556.108154 
	C768.455994,552.671387 770.958435,551.431458 775.214233,551.932373 
z"/>
<path fill="#F17217" opacity="1.000000" stroke="none" 
	d="
M1437.000000,614.276550 
	C1424.430908,614.274048 1412.361694,614.274048 1399.317871,614.274048 
	C1403.331055,608.178284 1406.699463,602.905823 1410.223389,597.739319 
	C1419.789551,583.713379 1429.481445,569.772705 1438.976196,555.698914 
	C1440.837280,552.940247 1442.841919,551.813293 1446.271729,551.831909 
	C1473.081421,551.977234 1499.892578,551.867493 1526.702759,551.959473 
	C1528.303223,551.964966 1530.598145,552.536804 1531.394897,553.670776 
	C1545.259766,573.402771 1558.940552,593.264038 1573.479126,614.279053 
	C1527.442261,614.279053 1482.471069,614.279053 1437.000000,614.276550 
z"/>
<path fill="#0D1931" opacity="1.000000" stroke="none" 
	d="
M1567.069092,718.181335 
	C1562.745117,719.219910 1558.768799,720.576843 1554.728882,720.804443 
	C1547.613159,721.205322 1540.458618,720.916565 1533.022217,720.916565 
	C1533.022217,703.642944 1533.022217,686.764343 1533.022217,669.358521 
	C1540.807983,669.358521 1548.406128,669.144043 1555.985718,669.426758 
	C1561.978149,669.650269 1567.164795,671.939026 1569.386597,678.036804 
	C1571.484497,683.793823 1570.829102,689.183167 1565.538086,693.235535 
	C1575.826904,700.198242 1576.514893,710.673645 1567.069092,718.181335 
M1557.531616,711.408813 
	C1561.185791,710.505920 1563.612793,708.453064 1562.947998,704.417725 
	C1562.298462,700.474609 1559.262451,699.150696 1555.647217,699.060486 
	C1551.578003,698.958923 1547.504395,699.037109 1543.276489,699.037109 
	C1543.276489,703.392456 1543.276489,707.145569 1543.276489,711.506348 
	C1547.838989,711.506348 1552.263306,711.506348 1557.531616,711.408813 
M1554.848999,689.972473 
	C1558.563354,689.207764 1560.293701,686.789978 1559.745117,683.179688 
	C1559.192383,679.541992 1556.364014,678.658630 1553.076660,678.704163 
	C1549.847900,678.748962 1546.617920,678.713989 1543.401855,678.713989 
	C1543.401855,682.849487 1543.401855,686.239746 1543.401855,690.024048 
	C1547.112549,690.024048 1550.545044,690.024048 1554.848999,689.972473 
z"/>
<path fill="#0D1931" opacity="1.000000" stroke="none" 
	d="
M455.404175,673.365540 
	C464.030304,668.001343 472.888123,667.075745 481.969421,670.539185 
	C494.101807,675.166321 500.824310,687.072876 498.788483,699.611572 
	C496.803497,711.837463 485.926849,721.075134 472.811981,721.673767 
	C460.396759,722.240417 449.409882,715.191467 445.395386,704.083862 
	C441.381836,692.978882 445.029633,681.525330 455.404175,673.365540 
M474.692108,711.490479 
	C475.807281,711.156555 476.963165,710.919983 478.031036,710.473022 
	C485.227814,707.460876 489.374603,699.295654 487.664154,691.594788 
	C485.869476,683.514709 478.758911,678.082031 470.536499,678.508789 
	C462.606842,678.920349 456.019104,685.034058 455.019501,692.909180 
	C453.579132,704.256592 461.468414,712.093750 474.692108,711.490479 
z"/>
<path fill="#0D1832" opacity="1.000000" stroke="none" 
	d="
M842.215576,669.605225 
	C850.056458,670.991394 855.420105,674.865051 856.734314,682.532349 
	C858.164062,690.873352 855.592590,697.696228 847.047119,701.480225 
	C851.136353,707.812683 855.073120,713.909119 859.548584,720.839661 
	C855.561096,720.839661 852.318848,721.052979 849.131104,720.728882 
	C847.947205,720.608582 846.597656,719.441345 845.832336,718.383545 
	C843.592285,715.287659 841.640198,711.985291 839.517395,708.802368 
	C835.195312,702.321716 835.176453,702.330933 826.522339,703.949646 
	C826.522339,709.281982 826.522339,714.721802 826.522339,720.496094 
	C822.842224,720.496094 819.612488,720.496094 815.999023,720.496094 
	C815.999023,703.692200 815.999023,686.809082 815.999023,669.514404 
	C824.635925,669.514404 833.215576,669.514404 842.215576,669.605225 
M834.397156,694.114319 
	C836.215820,694.039307 838.131958,694.305725 839.833374,693.820007 
	C843.678833,692.722412 846.166992,690.299561 845.972107,685.920166 
	C845.800598,682.064575 843.789124,679.474976 840.038147,679.127014 
	C835.668945,678.721680 831.233337,679.032410 826.727295,679.032410 
	C826.727295,684.319519 826.727295,689.036621 826.727295,694.111206 
	C829.192749,694.111206 831.332886,694.111206 834.397156,694.114319 
z"/>
<path fill="#101B31" opacity="1.000000" stroke="none" 
	d="
M613.073364,702.998657 
	C613.075134,691.699463 613.075134,680.899902 613.075134,668.677490 
	C623.092957,669.399780 633.043091,668.855591 642.321350,671.095215 
	C654.819885,674.112183 660.746887,685.637329 659.124023,699.642334 
	C657.895386,710.245300 648.366150,719.681335 636.926575,720.621704 
	C629.206787,721.256287 621.392639,720.742676 613.071594,720.742676 
	C613.071594,714.705688 613.071594,709.101990 613.073364,702.998657 
M623.883911,706.413818 
	C623.954285,707.980835 624.024658,709.547852 624.093567,711.081604 
	C633.084229,711.471985 641.830811,712.725769 646.647461,703.447083 
	C649.881287,697.217773 649.582947,690.837036 645.447876,685.062439 
	C639.973511,677.417786 631.936279,678.932190 623.879395,679.243896 
	C623.879395,688.207153 623.879395,696.816833 623.883911,706.413818 
z"/>
<path fill="#0E1A32" opacity="1.000000" stroke="none" 
	d="
M996.956177,699.595764 
	C989.811768,699.476257 983.152954,699.476257 975.873169,699.476257 
	C975.873169,706.509399 975.873169,713.410645 975.873169,720.571228 
	C971.997009,720.571228 968.730408,720.571228 965.080017,720.571228 
	C965.080017,703.766479 965.080017,686.881897 965.080017,669.653137 
	C968.412903,669.653137 971.776855,669.653137 975.719238,669.653137 
	C975.719238,676.371521 975.719238,682.960693 975.719238,689.669983 
	C983.265137,689.669983 990.238586,689.669983 997.756348,689.669983 
	C997.756348,683.013550 997.756348,676.464172 997.756348,669.582397 
	C1001.679871,669.582397 1005.062927,669.582397 1008.703796,669.582397 
	C1008.703796,686.528870 1008.703796,703.300415 1008.703796,720.460938 
	C1005.341309,720.460938 1001.969421,720.460938 998.387634,720.460938 
	C998.070312,713.500610 997.756042,706.607971 996.956177,699.595764 
z"/>
<path fill="#121D34" opacity="1.000000" stroke="none" 
	d="
M544.729492,678.080078 
	C544.765015,685.561584 544.713806,692.555786 544.854980,699.546082 
	C545.017273,707.585571 548.648621,711.598450 555.598328,711.695129 
	C562.333557,711.788757 566.221313,707.425049 566.291199,699.504761 
	C566.364563,691.180969 566.305969,682.856201 566.337952,674.531982 
	C566.344177,672.910095 566.500916,671.288696 566.598938,669.467224 
	C570.235474,669.467224 573.514587,669.467224 577.598267,669.467224 
	C577.598267,671.714600 577.616821,673.973694 577.595032,676.232361 
	C577.505249,685.550903 577.926025,694.912048 577.169556,704.176636 
	C576.279968,715.071594 567.405457,721.744324 555.351868,721.660034 
	C543.388123,721.576355 534.817810,715.136047 534.111877,704.244629 
	C533.372314,692.834778 533.946594,681.339783 533.946594,669.552856 
	C537.463501,669.552856 540.829407,669.552856 544.727722,669.552856 
	C544.727722,672.352295 544.727722,674.971680 544.729492,678.080078 
z"/>
<path fill="#131E35" opacity="1.000000" stroke="none" 
	d="
M1180.355957,695.732300 
	C1180.847534,698.939270 1179.428711,699.487305 1176.955200,699.411194 
	C1171.992920,699.258545 1167.022827,699.365845 1161.669189,699.365845 
	C1161.669189,703.370239 1161.669189,706.940063 1161.669189,711.067444 
	C1169.141968,711.067444 1176.861328,711.067444 1184.871216,711.067444 
	C1184.871216,714.524353 1184.871216,717.433167 1184.871216,720.632324 
	C1173.515991,720.632324 1162.282715,720.632324 1150.676636,720.632324 
	C1150.676636,703.599182 1150.676636,686.714417 1150.676636,669.528687 
	C1161.933838,669.528687 1172.997314,669.528687 1184.406250,669.528687 
	C1184.406250,672.467346 1184.406250,675.354736 1184.406250,678.903564 
	C1176.779785,678.903564 1169.216309,678.903564 1161.543701,678.903564 
	C1161.543701,682.811584 1161.543701,686.063782 1161.543701,689.844238 
	C1167.877563,689.844238 1173.954224,689.844238 1180.355103,689.844238 
	C1180.355103,692.022949 1180.355103,693.668701 1180.355957,695.732300 
z"/>
<path fill="#0F1B33" opacity="1.000000" stroke="none" 
	d="
M1502.177490,710.682129 
	C1503.539551,714.093506 1504.750244,717.151001 1506.224243,720.873718 
	C1504.043945,720.873718 1502.420044,720.653809 1500.877563,720.914551 
	C1496.061157,721.728821 1493.419556,719.827515 1492.685181,715.000610 
	C1492.140991,711.422791 1489.975830,710.060181 1486.355469,710.451721 
	C1483.720581,710.736694 1480.978760,710.908691 1478.382935,710.502625 
	C1472.026123,709.508301 1467.996948,711.386108 1466.658936,718.156738 
	C1466.437988,719.275391 1464.223633,720.523071 1462.774414,720.761047 
	C1460.198730,721.184021 1457.503662,720.880005 1454.289185,720.880005 
	C1454.885132,719.095337 1455.261841,717.722351 1455.793701,716.412292 
	C1461.676514,701.920776 1467.838013,687.534973 1473.347656,672.903381 
	C1475.325073,667.652161 1479.081177,669.874512 1482.296875,669.269531 
	C1485.567871,668.654114 1486.532837,670.622681 1487.519653,673.201904 
	C1492.267212,685.610901 1497.175049,697.958679 1502.177490,710.682129 
M1478.154053,687.850891 
	C1476.577637,692.148926 1475.001221,696.446960 1473.323242,701.022095 
	C1478.132568,701.022095 1482.487305,701.022095 1487.417847,701.022095 
	C1485.053223,694.859253 1482.872559,689.175781 1480.385376,682.693298 
	C1479.474243,684.788757 1478.957275,685.977356 1478.154053,687.850891 
z"/>
<path fill="#0D1931" opacity="1.000000" stroke="none" 
	d="
M779.317871,720.869507 
	C774.910095,721.540100 774.657898,718.259888 774.074280,715.900208 
	C773.025818,711.661377 770.824219,709.696533 766.351196,710.437988 
	C764.730774,710.706604 763.020813,710.602295 761.366943,710.472900 
	C754.817444,709.960693 748.623535,709.823242 747.554016,718.704102 
	C747.454285,719.531982 745.479309,720.593628 744.279297,720.735229 
	C741.659607,721.044434 738.978210,720.830872 735.466980,720.830872 
	C742.509705,703.393127 749.364136,686.421509 756.165771,669.580750 
	C766.635315,668.605225 766.638489,668.604004 770.288757,677.835327 
	C775.479553,690.962402 780.669617,704.089783 785.844238,717.223267 
	C786.255371,718.266907 786.544434,719.358765 787.032776,720.868835 
	C784.339355,720.868835 782.043335,720.868835 779.317871,720.869507 
M758.152588,691.670166 
	C756.974976,694.686890 755.797363,697.703613 754.492249,701.046875 
	C759.376526,701.046875 763.590576,701.046875 768.345154,701.046875 
	C766.080872,694.908325 763.983826,689.223206 761.588745,682.730042 
	C760.336121,686.048523 759.407166,688.509399 758.152588,691.670166 
z"/>
<path fill="#0E1932" opacity="1.000000" stroke="none" 
	d="
M1228.621826,682.550110 
	C1221.894043,690.387451 1221.798462,700.925903 1228.114624,707.216736 
	C1234.479370,713.555969 1243.761353,713.186951 1251.843628,706.287964 
	C1252.066284,706.097778 1252.409790,706.048889 1253.007324,705.809998 
	C1255.125122,707.948364 1257.326660,710.171265 1259.500244,712.365845 
	C1252.109131,723.145691 1233.101440,724.866638 1221.776855,715.951355 
	C1210.066650,706.732483 1208.712280,688.404602 1218.913452,677.200439 
	C1229.182617,665.921509 1248.040161,665.880920 1258.762695,676.862488 
	C1256.533936,679.166138 1254.293091,681.482300 1251.981934,683.871155 
	C1242.493652,677.144897 1237.167358,676.713745 1228.621826,682.550110 
z"/>
<path fill="#0F1A33" opacity="1.000000" stroke="none" 
	d="
M334.525757,669.371460 
	C339.228577,671.771423 343.542816,674.061096 348.361237,676.618286 
	C345.181885,679.623718 342.925598,681.756592 340.628082,683.928467 
	C329.001801,676.782959 320.736084,676.949951 314.811981,684.575562 
	C309.585510,691.303223 310.351196,701.663757 316.496979,707.373962 
	C323.199524,713.601685 331.980530,713.142395 340.700378,705.771973 
	C342.814758,708.117615 344.964996,710.503052 347.131531,712.906555 
	C340.404968,721.224915 327.284393,724.072021 316.374207,719.466003 
	C305.437714,714.848877 299.205841,704.044006 300.580719,692.083374 
	C301.963287,680.055725 310.343719,670.939575 322.218262,669.183350 
	C326.102417,668.608948 330.159241,669.202087 334.525757,669.371460 
z"/>
<path fill="#0E1932" opacity="1.000000" stroke="none" 
	d="
M888.726685,706.077759 
	C884.069092,691.470825 888.207581,678.919006 899.612305,672.253052 
	C910.335632,665.985596 924.741516,668.062683 933.211670,676.864929 
	C931.023010,679.202637 928.829346,681.545715 926.343994,684.200378 
	C922.269836,680.288574 917.147583,677.255432 911.061584,678.979309 
	C907.594971,679.961182 903.921631,681.988892 901.525513,684.622803 
	C895.681396,691.046753 896.713257,701.599182 903.083435,707.613831 
	C909.411438,713.588806 918.213623,712.983154 926.710022,705.724304 
	C928.695251,708.258362 930.706543,710.825867 932.790649,713.486145 
	C921.722351,727.075500 898.272949,723.794434 888.726685,706.077759 
z"/>
<path fill="#132039" opacity="1.000000" stroke="none" 
	d="
M1083.191650,670.433105 
	C1087.242798,669.747009 1091.157104,669.333374 1095.076050,669.285217 
	C1103.857666,669.177429 1112.641357,669.251526 1121.729126,669.251526 
	C1121.729126,672.510986 1121.729126,675.408142 1121.729126,678.805603 
	C1117.272217,678.805603 1112.868042,678.805603 1107.898926,678.805603 
	C1107.898926,692.975708 1107.898926,706.667419 1107.898926,720.582214 
	C1104.093384,720.582214 1100.864624,720.582214 1097.200439,720.582214 
	C1097.200439,706.780457 1097.200439,693.227417 1097.200439,679.167847 
	C1092.382080,679.167847 1087.979126,679.167847 1083.057129,679.167847 
	C1083.057129,676.074768 1083.057129,673.473145 1083.191650,670.433105 
z"/>
<path fill="#131F37" opacity="1.000000" stroke="none" 
	d="
M1308.757080,683.129089 
	C1308.753906,695.875671 1308.753906,708.136597 1308.753906,720.634033 
	C1304.972778,720.634033 1301.870728,720.634033 1298.244385,720.634033 
	C1298.244385,706.981995 1298.244385,693.285645 1298.244385,679.097046 
	C1293.347778,679.097046 1288.950317,679.097046 1284.291260,679.097046 
	C1284.291260,675.696045 1284.291260,672.788208 1284.291260,669.547791 
	C1296.951660,669.547791 1309.519409,669.547791 1322.498047,669.547791 
	C1322.498047,672.380188 1322.498047,675.259705 1322.498047,678.997498 
	C1319.164429,678.997498 1315.740601,679.155884 1312.338867,678.948792 
	C1309.474243,678.774414 1308.318726,679.826172 1308.757080,683.129089 
z"/>
<path fill="#131F37" opacity="1.000000" stroke="none" 
	d="
M391.326111,669.399597 
	C391.910156,681.307617 392.076050,693.093628 392.231049,704.879822 
	C392.256744,706.833557 392.234680,708.787964 392.234680,711.192322 
	C399.574554,711.192322 406.507080,711.192322 413.729004,711.192322 
	C413.729004,714.528076 413.729004,717.415649 413.729004,720.583862 
	C403.038147,720.583862 392.485657,720.583862 381.630707,720.583862 
	C381.630707,703.585999 381.630707,686.836609 381.630707,669.277649 
	C384.748138,669.277649 387.826233,669.277649 391.326111,669.399597 
z"/>
<path fill="#121E37" opacity="1.000000" stroke="none" 
	d="
M1409.166992,711.303589 
	C1415.938721,711.321655 1422.225342,711.321655 1428.816406,711.321655 
	C1428.816406,714.568787 1428.816406,717.451477 1428.816406,720.608643 
	C1418.123047,720.608643 1407.547607,720.608643 1396.579346,720.608643 
	C1396.579346,703.751221 1396.579346,686.898071 1396.579346,669.691284 
	C1399.831299,669.691284 1403.060425,669.691284 1407.056641,669.691284 
	C1407.056641,674.164856 1407.056763,678.736694 1407.056641,683.308472 
	C1407.056274,691.287659 1406.980225,699.268250 1407.128296,707.244690 
	C1407.153442,708.600769 1408.139648,709.939026 1409.166992,711.303589 
z"/>
<path fill="#080923" opacity="1.000000" stroke="none" 
	d="
M1126.649170,165.820358 
	C1126.525757,168.173447 1126.037842,170.270630 1126.037231,172.367950 
	C1125.999878,298.072357 1126.009521,423.776794 1125.939819,549.481140 
	C1125.938599,551.583618 1125.018433,553.685486 1124.111938,555.839600 
	C1123.981079,553.621338 1124.514160,551.351013 1124.514038,549.080688 
	C1124.507446,424.052307 1124.456299,299.023926 1124.411743,173.995544 
	C1124.410767,171.498337 1124.353027,168.994827 1124.540771,166.510834 
	C1124.568237,166.147766 1125.824585,165.877640 1126.649170,165.820358 
z"/>
<path fill="#00011B" opacity="1.000000" stroke="none" 
	d="
M1186.816650,539.506836 
	C1186.186401,538.108765 1185.090454,536.246887 1185.088013,534.383545 
	C1184.998047,462.758484 1185.001343,391.133209 1185.007690,319.507996 
	C1185.010986,283.529083 1185.043945,247.550186 1185.098022,211.076660 
	C1185.689697,212.330063 1186.733154,214.077820 1186.734253,215.826187 
	C1186.798340,321.733978 1186.776367,427.641846 1186.767334,533.549683 
	C1186.767212,535.380615 1186.828369,537.211487 1186.816650,539.506836 
z"/>
<path fill="#131E35" opacity="1.000000" stroke="none" 
	d="
M1053.583008,684.008118 
	C1053.584595,696.470337 1053.584595,708.433899 1053.584595,720.628906 
	C1049.948120,720.628906 1046.846924,720.628906 1043.331299,720.628906 
	C1043.331299,703.706360 1043.331299,686.819336 1043.331299,669.598633 
	C1046.508301,669.598633 1049.741699,669.598633 1053.581299,669.598633 
	C1053.581299,674.266235 1053.581299,678.887878 1053.583008,684.008118 
z"/>
<path fill="#080923" opacity="1.000000" stroke="none" 
	d="
M1120.650635,555.817688 
	C1117.997070,559.334106 1114.708008,558.608398 1111.148438,556.239868 
	C1114.070923,555.828430 1117.178589,555.759399 1120.650635,555.817688 
z"/>
<path fill="#080923" opacity="1.000000" stroke="none" 
	d="
M1074.691528,555.785522 
	C1071.527710,558.958008 1070.187866,558.259644 1068.305420,551.992126 
	C1070.375854,552.963562 1072.365845,554.310608 1074.691528,555.785522 
z"/>
<path fill="#080923" opacity="1.000000" stroke="none" 
	d="
M1093.729492,555.729614 
	C1092.356934,558.493042 1090.406982,558.994446 1088.030396,556.222290 
	C1089.776245,555.769714 1091.594238,555.683044 1093.729492,555.729614 
z"/>
<path fill="#080923" opacity="1.000000" stroke="none" 
	d="
M1068.376587,551.392578 
	C1068.015869,551.258301 1067.573730,550.820374 1067.121826,550.034363 
	C1067.506470,550.153809 1067.900757,550.621399 1068.376587,551.392578 
z"/>
<path fill="#E4E6E8" opacity="1.000000" stroke="none" 
	d="
M1557.109619,711.457581 
	C1552.263306,711.506348 1547.838989,711.506348 1543.276489,711.506348 
	C1543.276489,707.145569 1543.276489,703.392456 1543.276489,699.037109 
	C1547.504395,699.037109 1551.578003,698.958923 1555.647217,699.060486 
	C1559.262451,699.150696 1562.298462,700.474609 1562.947998,704.417725 
	C1563.612793,708.453064 1561.185791,710.505920 1557.109619,711.457581 
z"/>
<path fill="#E6E8EA" opacity="1.000000" stroke="none" 
	d="
M1554.413330,689.998291 
	C1550.545044,690.024048 1547.112549,690.024048 1543.401855,690.024048 
	C1543.401855,686.239746 1543.401855,682.849487 1543.401855,678.713989 
	C1546.617920,678.713989 1549.847900,678.748962 1553.076660,678.704163 
	C1556.364014,678.658630 1559.192383,679.541992 1559.745117,683.179688 
	C1560.293701,686.789978 1558.563354,689.207764 1554.413330,689.998291 
z"/>
<path fill="#EEEEF0" opacity="1.000000" stroke="none" 
	d="
M474.294128,711.575867 
	C461.468414,712.093750 453.579132,704.256592 455.019501,692.909180 
	C456.019104,685.034058 462.606842,678.920349 470.536499,678.508789 
	C478.758911,678.082031 485.869476,683.514709 487.664154,691.594788 
	C489.374603,699.295654 485.227814,707.460876 478.031036,710.473022 
	C476.963165,710.919983 475.807281,711.156555 474.294128,711.575867 
z"/>
<path fill="#E6E8EA" opacity="1.000000" stroke="none" 
	d="
M833.935120,694.112793 
	C831.332886,694.111206 829.192749,694.111206 826.727295,694.111206 
	C826.727295,689.036621 826.727295,684.319519 826.727295,679.032410 
	C831.233337,679.032410 835.668945,678.721680 840.038147,679.127014 
	C843.789124,679.474976 845.800598,682.064575 845.972107,685.920166 
	C846.166992,690.299561 843.678833,692.722412 839.833374,693.820007 
	C838.131958,694.305725 836.215820,694.039307 833.935120,694.112793 
z"/>
<path fill="#EEEEF0" opacity="1.000000" stroke="none" 
	d="
M623.881653,705.920166 
	C623.879395,696.816833 623.879395,688.207153 623.879395,679.243896 
	C631.936279,678.932190 639.973511,677.417786 645.447876,685.062439 
	C649.582947,690.837036 649.881287,697.217773 646.647461,703.447083 
	C641.830811,712.725769 633.084229,711.471985 624.093567,711.081604 
	C624.024658,709.547852 623.954285,707.980835 623.881653,705.920166 
z"/>
<path fill="#E4E6E8" opacity="1.000000" stroke="none" 
	d="
M1478.297241,687.508423 
	C1478.957275,685.977356 1479.474243,684.788757 1480.385376,682.693298 
	C1482.872559,689.175781 1485.053223,694.859253 1487.417847,701.022095 
	C1482.487305,701.022095 1478.132568,701.022095 1473.323242,701.022095 
	C1475.001221,696.446960 1476.577637,692.148926 1478.297241,687.508423 
z"/>
<path fill="#E6E8EA" opacity="1.000000" stroke="none" 
	d="
M758.315430,691.320190 
	C759.407166,688.509399 760.336121,686.048523 761.588745,682.730042 
	C763.983826,689.223206 766.080872,694.908325 768.345154,701.046875 
	C763.590576,701.046875 759.376526,701.046875 754.492249,701.046875 
	C755.797363,697.703613 756.974976,694.686890 758.315430,691.320190 
z"/>
</svg>